<svg xmlns="http://www.w3.org/2000/svg" viewBox="0 0 100 100">
  <rect width="100" height="100" fill="#d4a574"/>
  <rect x="50" y="0" width="50" height="50" fill="#8b5a3c"/>
  <rect x="0" y="50" width="50" height="50" fill="#8b5a3c"/>
  <g transform="translate(50, 50)">
    <path d="M -15,-30 L -8,-30 L -8,-22 L -12,-22 L -12,-12 L -18,-12 L -18,-2 L -25,8 L -25,15 L 25,15 L 25,8 L 18,-2 L 18,-12 L 12,-12 L 12,-22 L 8,-22 L 8,-30 L 15,-30 L 15,-35 L 5,-35 L 5,-25 L -5,-25 L -5,-35 L -15,-35 Z" 
          fill="#f5deb3" 
          stroke="#2c1810" 
          stroke-width="1.5"/>
    <circle cx="0" cy="-38" r="4" fill="#f5deb3" stroke="#2c1810" stroke-width="1.5"/>
  </g>
</svg>
